<svg id="Layer_1" data-name="Layer 1" xmlns="http://www.w3.org/2000/svg" viewBox="0 0 737.81 696.07"><defs><style>.cls-1{fill:#00afa0;}.cls-2{fill:#fff;}</style></defs><path class="cls-1" d="M309.51,419.78c.09-.19.2-.4.29-.6C309.7,419.36,309.61,419.56,309.51,419.78Zm.5-1c.09-.17.17-.35.26-.52C310.18,418.37,310.11,418.56,310,418.75Zm.6-1.22a.69.69,0,0,0,.09-.2A1,1,0,0,0,310.61,417.53Zm-1.81,3.68s0-.06.12-.25l0,0,0-.07.06-.13,0-.08v0c0-.06,0-.09.07-.16s0,0,0,0a.33.33,0,0,1,0-.06.19.19,0,0,1,0-.1h0v0a171.62,171.62,0,0,0,10-26.64,69.59,69.59,0,0,0,2.85-12.79,95.54,95.54,0,0,0,.33-13.85c-.08-1.84-.3-7.6,3.17-5.88,1.05.54.9,1.19,1.2,2,1.26,3.35,6.07-2.08,7.32-3.31,2-2,3.84-4,5.68-6.14A41.63,41.63,0,0,0,345.5,345c1.61-3.44,2.61-6.65-.73-7.3-3.62-.69-6.62,3.45-8.16,5.79s-2.94,5.06-4.55,7.5c-1.15,1.72-2.59,3.93-4.44,5-1.16.64-2.61.35-2-1.14a19.71,19.71,0,0,1,1.47-2.21c.92-1.48,1.73-3.06,2.52-4.64a80.07,80.07,0,0,0,7-18.12c.47-2.05,1.58-9.08-2.63-7.94-2.6.7-4.31,5-5.26,7.18-2.68,6.08-4.12,12.76-7.2,18.67-.76,1.47-2.34,4-4.33,2.68a3.5,3.5,0,0,1-1.29-2.46,78,78,0,0,1-1.12-9.26c-.55-6.31-1.55-13.18-6.78-17.45-3.78-3.09-5.65,1.23-5.88,4.57a32.86,32.86,0,0,0,1.05,9.57,64.54,64.54,0,0,0,2.83,8.95c1,2.57,1.78,5.31,3.72,7.34s3.21,3.82,2.42,6.67c-1,3.78-3.59,7.44-5.79,10.6-2,2.82-4.06,5.56-6.12,8.32-2.28,3.07-4.88,6.07-6.92,9.31a46.18,46.18,0,0,0-5.57,14.84c-.65,3.16-3.64,11.25-4.75,14.29-3.32,9.12-5.47,10.95-9.95,20.79-3.7,8-10.85,16.8-16.26,24.53-4,5.66-8.42,9.75-13.09,14.88-.44.49.08,1.4.24,1.59.49.57,4.42-2.53,4.85-2.79,1.36-.84,7.83-7.35,9.64-9.89,3.33-4.69,15.14-20.25,17.6-24.74,2.55-4.65,6-10.06,8.05-14.92a103.1,103.1,0,0,0,5.35-14.83c1.06-3.39,2-6.89,2.93-10.34.47-1.81,1.06-4,1.51-5.81a18.27,18.27,0,0,1,1.51-4c2.52-5.81,7.11-11.7,10.68-16.91,1.62-2.4,3.63-4.56,5-7.06,1.3-2.32,2.79-4.52,4.08-6.83a4.58,4.58,0,0,0-1.39-6.08c-2.69-2.13-4.06-5.47-5.24-8.63a60.65,60.65,0,0,1-2.88-10.46c-.34-1.81-.65-3.64-.86-5.47-.1-.72-.18-1.45-.22-2.18a12.31,12.31,0,0,1,.05-1.25c.48-3.94,3.28.13,4.08,1.64a25.64,25.64,0,0,1,2.33,7.32c.87,4.92,1.61,10.45,3.94,14.95.94,1.81,2.73,3.63,5,2.92a6.85,6.85,0,0,0,3.49-3.54,77.23,77.23,0,0,0,3-7.78c1.22-3.27,2.42-6.55,3.65-9.83a18,18,0,0,1,2.55-5.23c.87-1.07,2.34-2.2,2.56-.11a15.63,15.63,0,0,1-.8,5.34,46.23,46.23,0,0,1-1.53,5.32,117.74,117.74,0,0,1-5.37,11.57c-.93,1.83-5.68,8.8-1.61,9.17,3.08,1.11,6.73-3.93,8.34-5.87.74-.89,6-8.85,7.37-7.35,1.15,1.25-3.94,9.48-4.58,10.47-1.56,2.31-3.68,4.77-6.36,5.79a4.5,4.5,0,0,1-3.4.08c-.8-.34-1.21-.85-2.17-.78a4.47,4.47,0,0,0-3.64,2.57c-1.07,2.33-1,5.51-1.1,8s.38,5,.2,7.45c-.31,4.53-1.7,9.1-2.91,13.46-1.52,5.39-3.25,10.75-5.25,16a169.25,169.25,0,0,1-8.26,18.39c-1.67,3.21-3.44,6.38-5.23,9.52q-1.44,2.49-2.89,5c-.39.67-2.83,3.76-2.52,4.47,0,.07,3.31-3.65,3.62-4,1.49-2,2.89-4,4.25-6A116.24,116.24,0,0,0,308.8,421.21ZM428.87,576.69c-9.15,2.1-19.64,4.54-20.6,4.87,1.19-.23,16.09-2.36,17-2.45a152.11,152.11,0,0,1,17.27-.91c9.92.13,19.51,1.84,29.21,3.31a178.05,178.05,0,0,1,38.11,9.67,104.74,104.74,0,0,1,18.85,9.36c2.9,1.88,8,8.83,11.37,8.81-4.64-6.65-11-11-17-15.81,6-1.5,13.49,5.86,18.47,9,4.52,2.83,8.31,6,12.58,9.31,15,11.55,28,34.14,7.1,34.61-.4,0-.81-.2-1.19.17,1.6,3.25,6.29.54,8.12-.47,5-2.82,6.78-7.54,6-13.29-4.14-12.79-13.42-19.79-21.88-26.64-9.17-7.44-17-13.14-27.54-18.5-5.64-2.86-14.4-7.21-16.82-13.59a10.17,10.17,0,0,1,.64-8.37c.67-1.36,1.35-1.48,2.33-.34,1.43,1.69,8.62,14.58,11.14,13.67,1.28-.47,2.28-1,2.07-2.59-1-7.37-3.07-14,3.3-20.35,1.23-1.22,1.88-1.18,2.46.42.84,2.29.54,21,1.33,21.41.64.32,1.2-.06,1.68-.44,1.14-1,1.64-5.45,1.93-6.7,1.29,1.09.16,4.79.89,5.21a1.35,1.35,0,0,0,1.68-.29c4.11-4.23,5.42-15,13.64-14.29,2.93.27,4.45,2,4.14,5-.64,5.72-4.45,9.75-8.45,13.48l.85,1.2a24.43,24.43,0,0,0,4.16-3.3,44.22,44.22,0,0,0,6-9.82c2.5-5.35-1.47-11.49-7.12-11.32s-7.75,3.24-12.36,5.53c-1.75-2.23-.59-6-2.29-8.54-1.45-2.22-3-2.74-5.51-1.94a11.58,11.58,0,0,0-4.55,2.77c-3,2.83-5,7-6.28,10.63-.75,2.2-1.18,2.37-2.68.71a56.82,56.82,0,0,0-4.53-5c-2.3-2-4.61-2.13-6.81,0-4.39,4.17-2.32,9.33-.48,14.26a33.49,33.49,0,0,1,1.5,4.82c-3.33,1.32-11.81-1.65-15.33-2.36a135.11,135.11,0,0,0-20.1-3c-7.42.22-16.49-.47-24,.66C442.27,575.47,435.71,576.44,428.87,576.69Zm-181-269.56c-5.07.25.74,34.55,11.38,36.82,7.34,1.58,15-2.35,19.14-9.23,6.92-11.57,4.21-27.92-1.57-39.39-.09-.21-.18-.42-.29-.62a3.1,3.1,0,0,0-.11.51c-2.51,10.28,5.11,21.64,1.81,32.92-2.62,8.87-15.37,22-23.41,9.87C252.61,334.76,246.81,307.8,247.82,307.13ZM748.36,500.62c27.41,21.76,33.36,62.26,25.9,94.53-8.77,38-35.19,68.28-63.84,93.2-26.5,23.06-55.8,43.71-88.53,56.63a4.62,4.62,0,0,0-2.79,3.59,7.52,7.52,0,0,1-.93,2.51c-26,43.66-71.59,68.34-118,83.66-22.49,7.4-46.89,11.17-70.33,15-22.12,3.56-44.76,3-67,1.07a379.47,379.47,0,0,1-113.11-28.39C175.91,791.48,116.3,746.84,69.25,660.48a2.06,2.06,0,0,1-.17-.33C55.4,631,48.24,598.29,43.73,566.73,22.26,415.87,81.83,257.14,197.45,158c5.54-4.75,14.14.82,14.45,7.24a272.93,272.93,0,0,1-3.77,61.43,4.62,4.62,0,0,0,4.77,5.38,75,75,0,0,1,37.53,8.6c6.26,3.3,9.48,5.08,14.46-1.49,3.92-5.18,7.51-10.63,11.25-15.93,7.55-10.71,19.81-28.09,27.34-38.79,4.71-6.66,11.64-3.18,11.65,4.53,0,8.83,0,23.5.05,33.81a4.54,4.54,0,0,0,3.7,4.5,8.49,8.49,0,0,1,.93.19,18.74,18.74,0,0,1,9.73,5.49,4.62,4.62,0,0,0,4.91,1.13c.12,0,.24-.09.35-.12,6.58-2.06,13.94.58,18.8,5.17,13,12.35,3.68,28.41-2.59,41.43-2.35,4.92-9.73,20.2-7.69,23.95,1.36,2.5,5.62,4.06,7.34,6.95a19.37,19.37,0,0,1,2.49,9.8c0,8.8-4.28,17.7-7,25.89-2.68,7.87-5.39,15.7-8.19,23.52-12,33.26-26.24,65.9-46.92,94.77a215.54,215.54,0,0,1-16.93,20.85c-3.28,3.52-8,6.91-9.71,11a4.53,4.53,0,0,0,1.46,5.27,206.35,206.35,0,0,0,78.5,38.85c15.66,3.84,81.65,17.63,99.4,16.29,13.8-1.06,27.46-.81,40.67,2.2a4.87,4.87,0,0,0,5.48-2.81c1.76-4,3.61-6.63,7.82-8.5,6.85-3.07,12.79-.23,19.21,2.43a4.89,4.89,0,0,0,5.85-2,17.81,17.81,0,0,1,3.37-3.89c5-4.22,17.28-4.64,20.18,4a3.89,3.89,0,0,1,0,.75,3.06,3.06,0,0,0,3.35,3.13,10.28,10.28,0,0,1,5,.46c2.84,1.27,7.4,2.31,7.56,9.77.09,3.91-3.43,9.67-6.08,13.17a4.33,4.33,0,0,0,.24,5.48c.81.89,1.62,1.77,2.44,2.63A128.91,128.91,0,0,0,571,595.69c9.16,7.4,19.2,12.8,29.75,17.84,14.6,7,29.52,15,36.55,28.94a4.62,4.62,0,0,0,7.92.57l.05-.08a4.7,4.7,0,0,0,.56-4.22c-12.55-35.38-8.22-75.71,12.67-107.16C677.43,503.06,715.94,474.87,748.36,500.62ZM699.58,517c10.69-5.35,22.22-7.83,33.44-5.16C721.89,506.32,710.14,509.67,699.58,517Zm6,49.23c-2.08-4.24-2.75-4.82-7.14-3.07-14.9,5.88-26.07,42.67-20.47,57.55.78,2.06,1.42,2.26,3.12.66l.11-.1c.07-.06.16-.17.26-.25C688.56,606.76,714.18,583.83,705.62,566.26Zm0,25c-5.41,5.23-8.2,13-12.43,19.1-1.92,2.77-9,8.09-8.26,11.41l.09-.08c.56-.53,1-1,1.47-1.42a.57.57,0,0,0,.17-.18c.77-.74,1.32-1.28,1.68-1.68a.38.38,0,0,1,.11-.11l.14-.16C696.15,610.32,702.18,601.69,705.57,591.29ZM353.82,253.46a2.14,2.14,0,0,0-3.11-2.62c-3.85,1-8.26,5.66-12.5,10a21.34,21.34,0,0,1-8.49,5.43,1,1,0,0,1-1.12-1.45c1.15-2.06,3.84-5.19,6.84-9.44,3.94-5.62,7.09-11.33,3.87-13.45-2.73-1.79-6.72,4.06-9.16,10.78-1.57,4.35-3.73,8.45-5.54,10.48a1.52,1.52,0,0,1-2.65-.93c-.1-3.35.66-7.17,1.1-10.95.56-4.6.64-9.16-1.84-12.79-.42-.64-.85-.89-1.26-.82s-.79.46-1.17,1.13c-1.09,2-2.46,6.81-3.49,11.4s-1.66,9-1.28,10.18a11.67,11.67,0,0,0,2,3.17,6.67,6.67,0,0,1,1.47,2.49c.49,7.73-1.65,14.59-4.76,21.15S305.45,300,302,306.55c-1.25,2.33,2.39-2,5.4-6.56,4.53-6.9,15-24.17,15.92-28.93.67-3.67,4.47-1.72,5.54-.61,1.77,1.78,1,9.73.48,16.06-.8,10.09-7.2,28.52-5.74,29.57.49-.15.84-.22,1.19-.33s4.27-15.12,5.12-18.39a66,66,0,0,0,2.6-14.3c.52-7.59.87-14.81.57-14.69.38-.14,1,.22,1.47.67a5,5,0,0,1,1.07,1.27c.95,2.11,5.41-1.05,9.67-5.26S353.59,255.55,353.82,253.46Zm-164.73,32c0-.23-.08-.49-.14-.81l-.16.09c-3.75,2.1-7.45,20.51-10.1,25-3.47,5.86-11.41,14-18.87,8.74-.37,3.58,7.94,2.61,9.52,2.3,5.76-1.1,8.58-4.74,11.48-9.45,4.38-7.09,9.39-16.91,8.28-25.59A1.09,1.09,0,0,0,189.09,285.43Zm30.35,58.81c-1.95-3.38-20.75-18.73-21.71-17.69S213.9,343.84,219,344.49c0,0,0,0,0,0a.38.38,0,0,0,.2,0h.09a1,1,0,0,0,.29,0A.5.5,0,0,0,219.44,344.24ZM168.23,271.9c-.19-.86-.62-4.65-2.93-1.62-7,9.23-16.9,31.44-9.62,43.08-.24,0,.14.69,2,2.52-3.84-9.14-.24-22.87,3.44-31.42C162.18,282,168.73,274.05,168.23,271.9Zm84.19,128.89c2.17-4,3.49-7.79,2.78-10.12-9.59,13.66-14.8,31-33.79,33.63-6.12.84-11.57-.49-15.64-5.69-8.41-10.65-9-25.81-7.52-38.76a83.1,83.1,0,0,1,4.27-17.65,24.4,24.4,0,0,0,.72-3.77c6.84-.82,8.69-1.4,11.76-3.59-2.23,1.06-7.66,2.89-11.66,2.61a22.51,22.51,0,0,1,.94-5c8.14-.93,10-1.43,13.32-3.78-3.45,1.62-14.4,5.08-16.17-.15-.65-1.89-3-19.18-4.62-19.38-4,8.15,4.2,19.25,3.89,27.69a3.65,3.65,0,0,1-1.87-2.11c-.65-1.89-3-19.18-4.62-19.38-4.19,8.56,5,20.37,3.79,28.93a31,31,0,0,1-1.31,5.34,102,102,0,0,1-11,16.5c-10.26,13.11-35.54,33.2-48.28,11.42-5.06-8.6-5.08-18.41-4.15-28,.7-7.14,4.49-12.83,5.44-19.25a1.86,1.86,0,0,0,.05-.3.68.68,0,0,0-.27-.05c-2.41-.39-4.11,3-5.29,7.56-4,5.07-5,22.71-5.11,25.55-.28,9.36,1.68,22.6,10,28.49,9.68,6.9,25.68,1.56,34.35-4.55,5.15-3.62,9.2-8.83,13.1-13.72.54-.7,7.28-9.67,7.62-7.88,1.59,8.27-1.68,17.61.31,26.4s6,17.43,15.29,19.85c9.15,2.36,21.84-2,28.76-8C241,420.47,250.48,408.35,252.42,400.79ZM146.36,329.5a8.65,8.65,0,0,0,2.73-1.51c-9.73-10.69-19-21.88-29.13-32.17-1,1.43-1.95,2.89-2.93,4.32a179.74,179.74,0,0,1,27.16,27.51A17.51,17.51,0,0,1,146.36,329.5Zm4.91,19.68a8.14,8.14,0,0,0-1.6-6.83c-7.79-10.63-18.71-17.24-30-23.76-3.52-2-7.08-4-10.66-5.88-.52.88-1.05,1.77-1.55,2.66s-.83,1.65-1.26,2.49C122.42,327,137.65,338.13,151.27,349.18Z" transform="translate(-39.41 -156.25)"/><path class="cls-2" d="M693.14,610.39c4.23-6.07,7-13.87,12.43-19.1-3.39,10.4-9.42,19-17,26.88,2-2.3-3.89,2.6-3.66,3.63C684.18,618.48,691.22,613.16,693.14,610.39Z" transform="translate(-39.41 -156.25)"/><path class="cls-2" d="M684.88,621.8c-.23-1,5.7-5.93,3.66-3.63l-.14.16a.38.38,0,0,0-.11.11l-1.68,1.68a.57.57,0,0,1-.17.18c-.49.48-1,1-1.47,1.42Z" transform="translate(-39.41 -156.25)"/><path class="cls-2" d="M686.61,620.12l1.68-1.68C687.93,618.84,687.38,619.38,686.61,620.12Z" transform="translate(-39.41 -156.25)"/><path class="cls-2" d="M685,621.72c.49-.46,1-.94,1.47-1.42C686,620.71,685.53,621.19,685,621.72Z" transform="translate(-39.41 -156.25)"/><path class="cls-2" d="M353.23,251.05a2.72,2.72,0,0,1,.59,2.41c-.23,2.09-4.31,7.37-8.58,11.59s-8.72,7.37-9.67,5.26A5,5,0,0,0,334.5,269c-.52-.45-1.09-.81-1.47-.67.3-.12,0,7.1-.57,14.69a66,66,0,0,1-2.6,14.3c-.85,3.27-4.73,18.14-5.12,18.39s-.7.18-1.19.33c-1.46-1.05,4.94-19.48,5.74-29.57.5-6.33,1.29-14.28-.48-16.06-1.07-1.11-4.87-3.06-5.54.61-.9,4.76-11.39,22-15.92,28.93-3,4.6-6.65,8.89-5.4,6.56,3.5-6.55,7.61-12.81,10.73-19.38s5.25-13.42,4.76-21.15a6.67,6.67,0,0,0-1.47-2.49,11.67,11.67,0,0,1-2-3.17c-.38-1.18.27-5.57,1.28-10.18s2.4-9.4,3.49-11.4c.38-.67.77-1.07,1.17-1.13s.84.18,1.26.82c2.48,3.63,2.4,8.19,1.84,12.79-.44,3.78-1.2,7.6-1.1,10.95a1.52,1.52,0,0,0,2.65.93c1.81-2,4-6.13,5.54-10.48,2.44-6.72,6.43-12.57,9.16-10.78,3.22,2.12.07,7.83-3.87,13.45-3,4.25-5.69,7.38-6.84,9.44a1,1,0,0,0,1.12,1.45,21.34,21.34,0,0,0,8.49-5.43c4.24-4.29,8.65-9,12.5-10A2.74,2.74,0,0,1,353.23,251.05Zm-2.05,4.74a1.1,1.1,0,0,0-1.45-1.57,22.53,22.53,0,0,0-3.93,2.61L337.91,263c-.79.61-1.64,1.38-1.66,2.27l.42.23c-.05,1.06,1.14,1.68,2.24,1.51a7.08,7.08,0,0,0,3-1.61C345.42,262.63,349,259.54,351.18,255.79Zm-30.77-9.38a1.24,1.24,0,0,0-1.53-.61,1.48,1.48,0,0,0-.6.84,30.28,30.28,0,0,0-2,11c0,2.12.92,4.92,3,5v0a1.25,1.25,0,0,0,1.37-.48,3.38,3.38,0,0,0,.35-2c-.07-4-.17-8-.25-11.95A3.56,3.56,0,0,0,320.41,246.41Z" transform="translate(-39.41 -156.25)"/><path class="cls-2" d="M550.46,556.66c5.65-.17,9.62,6,7.12,11.32a44.22,44.22,0,0,1-6,9.82,24.43,24.43,0,0,1-4.16,3.3l-.85-1.2c4-3.73,7.81-7.76,8.45-13.48.31-3-1.21-4.69-4.14-5-8.22-.74-9.53,10.06-13.64,14.29a1.35,1.35,0,0,1-1.68.29c-.73-.42.4-4.12-.89-5.21-.29,1.25-.79,5.72-1.93,6.7-.48.38-1,.76-1.68.44-.79-.39-.49-19.12-1.33-21.41-.58-1.6-1.23-1.64-2.46-.42l-1.55-1.66a11.58,11.58,0,0,1,4.55-2.77c2.51-.8,4.06-.28,5.51,1.94,1.7,2.56.54,6.31,2.29,8.54C542.71,559.9,545,556.84,550.46,556.66Z" transform="translate(-39.41 -156.25)"/><path class="cls-1" d="M349.73,254.22a1.1,1.1,0,0,1,1.45,1.57c-2.19,3.75-5.76,6.84-9.29,9.61a7.08,7.08,0,0,1-3,1.61c-1.1.17-2.29-.45-2.24-1.51l-.42-.23c0-.89.87-1.66,1.66-2.27l7.89-6.17A22.53,22.53,0,0,1,349.73,254.22Z" transform="translate(-39.41 -156.25)"/><path class="cls-2" d="M525.75,554.48l1.55,1.66c-6.37,6.35-4.32,13-3.3,20.35.21,1.57-.79,2.12-2.07,2.59-2.52.91-9.71-12-11.14-13.67-1-1.14-1.66-1-2.33.34a10.17,10.17,0,0,0-.64,8.37L505,575c-1.84-4.93-3.91-10.09.48-14.26,2.2-2.08,4.51-2,6.81,0a56.82,56.82,0,0,1,4.53,5c1.5,1.66,1.93,1.49,2.68-.71C520.72,561.49,522.73,557.31,525.75,554.48Z" transform="translate(-39.41 -156.25)"/><path class="cls-1" d="M319.28,262.58v0c-2.07-.06-3-2.86-3-5a30.28,30.28,0,0,1,2-11,1.48,1.48,0,0,1,.6-.84,1.24,1.24,0,0,1,1.53.61,3.56,3.56,0,0,1,.34,1.79c.08,4,.18,8,.25,11.95a3.38,3.38,0,0,1-.35,2A1.25,1.25,0,0,1,319.28,262.58Z" transform="translate(-39.41 -156.25)"/><path class="cls-2" d="M552.18,606.21c8.46,6.85,17.74,13.85,21.88,26.64.8,5.75-.95,10.47-6,13.29-1.83,1-6.52,3.72-8.12.47.38-.37.79-.15,1.19-.17,20.88-.47,7.88-23.06-7.1-34.61-4.27-3.27-8.06-6.48-12.58-9.31-5-3.12-12.43-10.48-18.47-9,6,4.82,12.41,9.16,17,15.81-3.37,0-8.47-6.93-11.37-8.81a104.74,104.74,0,0,0-18.85-9.36,178.05,178.05,0,0,0-38.11-9.67c-9.7-1.47-19.29-3.18-29.21-3.31a152.11,152.11,0,0,0-17.27.91c-.88.09-15.78,2.22-17,2.45,1-.33,11.45-2.77,20.6-4.87,6.84-.25,13.4-1.22,18.13-1.52,7.55-1.13,16.62-.44,24-.66a135.11,135.11,0,0,1,20.1,3c3.52.71,12,3.68,15.33,2.36A33.49,33.49,0,0,0,505,575l2.85-.88c2.42,6.38,11.18,10.73,16.82,13.59C535.21,593.07,543,598.77,552.18,606.21Z" transform="translate(-39.41 -156.25)"/><path class="cls-2" d="M344.77,337.74c3.34.65,2.34,3.86.73,7.3a41.63,41.63,0,0,1-5.63,8.59c-1.84,2.12-3.72,4.17-5.68,6.14-1.25,1.23-6.06,6.66-7.32,3.31-.3-.83-.15-1.48-1.2-2-3.47-1.72-3.25,4-3.17,5.88a95.54,95.54,0,0,1-.33,13.85,69.59,69.59,0,0,1-2.85,12.79,171.62,171.62,0,0,1-10,26.64.07.07,0,0,0,0,0,1,1,0,0,0,0,.1s0,0,0,.06,0,0,0,0a1.26,1.26,0,0,0-.07.16l-.06.11-.06.13s0,.06,0,.07a0,0,0,0,1,0,0c-.09.19-.12.28-.12.25a116.24,116.24,0,0,1-7.41,13c-1.36,2.06-2.76,4.07-4.25,6-.31.38-3.59,4.1-3.62,4-.31-.71,2.13-3.8,2.52-4.47q1.45-2.46,2.89-5c1.79-3.14,3.56-6.31,5.23-9.52a169.25,169.25,0,0,0,8.26-18.39c2-5.24,3.73-10.6,5.25-16,1.21-4.36,2.6-8.93,2.91-13.46.18-2.49-.29-5-.2-7.45s0-5.7,1.1-8a4.47,4.47,0,0,1,3.64-2.57c1-.07,1.37.44,2.17.78a4.5,4.5,0,0,0,3.4-.08c2.68-1,4.8-3.48,6.36-5.79.64-1,5.73-9.22,4.58-10.47-1.38-1.5-6.63,6.46-7.37,7.35-1.61,1.94-5.26,7-8.34,5.87-4.07-.37.68-7.34,1.61-9.17a117.74,117.74,0,0,0,5.37-11.57,46.23,46.23,0,0,0,1.53-5.32,15.63,15.63,0,0,0,.8-5.34c-.22-2.09-1.69-1-2.56.11a18,18,0,0,0-2.55,5.23c-1.23,3.28-2.43,6.56-3.65,9.83a77.23,77.23,0,0,1-3,7.78,6.85,6.85,0,0,1-3.49,3.54c-2.24.71-4-1.11-5-2.92-2.33-4.5-3.07-10-3.94-14.95a25.64,25.64,0,0,0-2.33-7.32c-.8-1.51-3.6-5.58-4.08-1.64a12.31,12.31,0,0,0-.05,1.25c0,.73.12,1.46.22,2.18.21,1.83.52,3.66.86,5.47a60.65,60.65,0,0,0,2.88,10.46c1.18,3.16,2.55,6.5,5.24,8.63a4.58,4.58,0,0,1,1.39,6.08c-1.29,2.31-2.78,4.51-4.08,6.83-1.41,2.5-3.42,4.66-5,7.06-3.57,5.21-8.16,11.1-10.68,16.91a18.27,18.27,0,0,0-1.51,4c-.45,1.82-1,4-1.51,5.81-.94,3.45-1.87,7-2.93,10.34a103.1,103.1,0,0,1-5.35,14.83c-2.1,4.86-5.5,10.27-8.05,14.92-2.46,4.49-14.27,20.05-17.6,24.74-1.81,2.54-8.28,9.05-9.64,9.89-.43.26-4.36,3.36-4.85,2.79-.16-.19-.68-1.1-.24-1.59,4.67-5.13,9.12-9.22,13.09-14.88,5.41-7.73,12.56-16.48,16.26-24.53,4.48-9.84,6.63-11.67,9.95-20.79,1.11-3,4.1-11.13,4.75-14.29a46.18,46.18,0,0,1,5.57-14.84c2-3.24,4.64-6.24,6.92-9.31,2.06-2.76,4.14-5.5,6.12-8.32,2.2-3.16,4.76-6.82,5.79-10.6.79-2.85-.53-4.7-2.42-6.67S307,347,306,344.38a64.54,64.54,0,0,1-2.83-8.95,32.86,32.86,0,0,1-1.05-9.57c.23-3.34,2.1-7.66,5.88-4.57,5.23,4.27,6.23,11.14,6.78,17.45a78,78,0,0,0,1.12,9.26,3.5,3.5,0,0,0,1.29,2.46c2,1.27,3.57-1.21,4.33-2.68,3.08-5.91,4.52-12.59,7.2-18.67.95-2.17,2.66-6.48,5.26-7.18,4.21-1.14,3.1,5.89,2.63,7.94a80.07,80.07,0,0,1-7,18.12c-.79,1.58-1.6,3.16-2.52,4.64a19.71,19.71,0,0,0-1.47,2.21c-.62,1.49.83,1.78,2,1.14,1.85-1,3.29-3.23,4.44-5,1.61-2.44,3-5.06,4.55-7.5S341.15,337.05,344.77,337.74Z" transform="translate(-39.41 -156.25)"/><path class="cls-2" d="M276.48,294.71c.11.2.2.41.29.62,1.44,3.16-.85,2.58-.4-.11A3.1,3.1,0,0,1,276.48,294.71Z" transform="translate(-39.41 -156.25)"/><path class="cls-2" d="M276.37,295.22c-.45,2.69,1.84,3.27.4.11,5.78,11.47,8.49,27.82,1.57,39.39-4.12,6.88-11.8,10.81-19.14,9.23-10.64-2.27-16.45-36.57-11.38-36.82-1,.67,4.79,27.63,7,30.88,8,12.1,20.79-1,23.41-9.87C281.48,316.86,273.86,305.5,276.37,295.22Z" transform="translate(-39.41 -156.25)"/><path class="cls-2" d="M310.7,417.33a.69.69,0,0,1-.09.2A1,1,0,0,1,310.7,417.33Z" transform="translate(-39.41 -156.25)"/><path class="cls-2" d="M310.27,418.23c-.09.17-.17.35-.26.52C310.11,418.56,310.18,418.37,310.27,418.23Z" transform="translate(-39.41 -156.25)"/><path class="cls-2" d="M309.8,419.18c-.09.2-.2.41-.29.6C309.61,419.56,309.7,419.36,309.8,419.18Z" transform="translate(-39.41 -156.25)"/><path class="cls-2" d="M309.26,420.26a.19.19,0,0,0,0,.1A1,1,0,0,1,309.26,420.26Z" transform="translate(-39.41 -156.25)"/><path class="cls-2" d="M309.17,420.45c0,.07-.05.1-.07.16A1.26,1.26,0,0,1,309.17,420.45Z" transform="translate(-39.41 -156.25)"/><path class="cls-2" d="M309.1,420.61v0l0,.08Z" transform="translate(-39.41 -156.25)"/><path class="cls-2" d="M309,420.85l0,.07S309,420.88,309,420.85Z" transform="translate(-39.41 -156.25)"/><path class="cls-2" d="M308.94,420.92l0,0A0,0,0,0,0,308.94,420.92Z" transform="translate(-39.41 -156.25)"/><path class="cls-2" d="M189,284.62c.06.32.1.58.14.81a1.09,1.09,0,0,1,0,.26c.09,1.82-1.18-.3-.31-1Z" transform="translate(-39.41 -156.25)"/><path class="cls-2" d="M189,284.62l-.16.09Z" transform="translate(-39.41 -156.25)"/><path class="cls-2" d="M178.69,309.69c2.65-4.47,6.35-22.88,10.1-25-.87.68.4,2.8.31,1,1.11,8.68-3.9,18.5-8.28,25.59-2.9,4.71-5.72,8.35-11.48,9.45-1.58.31-9.89,1.28-9.52-2.3C167.28,323.73,175.22,315.55,178.69,309.69Z" transform="translate(-39.41 -156.25)"/><path class="cls-2" d="M197.73,326.55c1-1,19.76,14.31,21.71,17.69-.33-.43-.79.08-.48.25C213.9,343.84,196.77,327.57,197.73,326.55Z" transform="translate(-39.41 -156.25)"/><path class="cls-2" d="M219.44,344.24a.5.5,0,0,1,.15.26A.63.63,0,0,0,219.44,344.24Z" transform="translate(-39.41 -156.25)"/><path class="cls-2" d="M219.44,344.24a.63.63,0,0,1,.15.26,1,1,0,0,1-.29,0h-.09l-.2,0s0,0,0,0C218.65,344.32,219.11,343.81,219.44,344.24Z" transform="translate(-39.41 -156.25)"/><path class="cls-2" d="M219,344.5l.2,0A.38.38,0,0,1,219,344.5Z" transform="translate(-39.41 -156.25)"/><path class="cls-2" d="M165.3,270.28c2.31-3,2.74.76,2.93,1.62.5,2.15-6,10.05-7.13,12.56-3.68,8.55-7.28,22.28-3.44,31.42a5,5,0,0,0-2-2.52C148.4,301.72,158.31,279.51,165.3,270.28Z" transform="translate(-39.41 -156.25)"/><path class="cls-2" d="M255.2,390.67c.71,2.33-.61,6.11-2.78,10.12a7.32,7.32,0,0,0,.18-3.92c-4.95,7.05-8.74,15.11-13.86,21.59h0c-7.11,5.44-18.82,9.11-27.41,6.89C202,422.94,198,414.26,196,405.51c-1.7-7.55.47-15.48.11-22.8a89.44,89.44,0,0,1,3.78-14.31c.84-2.48,1-8.18,1.76-9.78l1.56-.19a24.4,24.4,0,0,1-.72,3.77,83.1,83.1,0,0,0-4.27,17.65c-1.51,12.95-.89,28.11,7.52,38.76,4.07,5.2,9.52,6.53,15.64,5.69C240.4,421.7,245.61,404.33,255.2,390.67Z" transform="translate(-39.41 -156.25)"/><path class="cls-2" d="M252.6,396.87a7.32,7.32,0,0,1-.18,3.92c-3.64,6.79-9.66,14.25-12.34,16.58-.42.37-.86.73-1.34,1.09C243.86,412,247.65,403.92,252.6,396.87Z" transform="translate(-39.41 -156.25)"/><path class="cls-2" d="M217.6,348.64c-3.3,2.35-5.18,2.85-13.32,3.78a22.51,22.51,0,0,0-.94,5,7.37,7.37,0,0,1-2.64-.65c.31-8.44-7.88-19.54-3.89-27.69,1.63.2,4,17.49,4.62,19.38C203.2,353.72,214.15,350.26,217.6,348.64Z" transform="translate(-39.41 -156.25)"/><path class="cls-2" d="M240.08,417.37c2.68-2.33,8.7-9.79,12.34-16.58-1.94,7.56-11.38,19.68-14.94,22.78-6.92,6-19.61,10.35-28.76,8-9.31-2.42-13.34-11.1-15.29-19.85s1.28-18.13-.31-26.4c-.34-1.79-7.08,7.18-7.62,7.88-3.9,4.89-7.95,10.1-13.1,13.72-8.67,6.11-24.67,11.45-34.35,4.55-8.29-5.89-10.25-19.13-10-28.49.09-2.84,1.11-20.48,5.11-25.55a103.13,103.13,0,0,0-2.42,17.29.29.29,0,0,1,0,.16c0,.26-.07.53-.1.79-.93,9.63-.91,19.44,4.15,28,10.37,17.73,29.07,7.7,41.19-3.72a.22.22,0,0,0,.1-.09c4.64-3.55,8.39-8.36,12-12.9.54-.7,7.28-9.67,7.62-7.88a25.1,25.1,0,0,1,.42,3.6c-.2,1.09-.36,2.2-.49,3.34-1.51,12.95-.89,28.11,7.52,38.76,4.07,5.2,9.52,6.53,15.64,5.69,9.17-1.25,15.13-6,19.92-12h0C239.22,418.1,239.66,417.74,240.08,417.37Z" transform="translate(-39.41 -156.25)"/><path class="cls-2" d="M215,354.84c-3.07,2.19-4.92,2.77-11.76,3.59,0-.31.08-.65.1-1C207.34,357.73,212.77,355.9,215,354.84Z" transform="translate(-39.41 -156.25)"/><path class="cls-2" d="M194.21,335.31c1.63.2,4,17.49,4.62,19.38a3.65,3.65,0,0,0,1.87,2.11,7.41,7.41,0,0,1-.1,1.24,37.71,37.71,0,0,1-3.91,11.54,31,31,0,0,0,1.31-5.34C199.26,355.68,190,343.87,194.21,335.31Z" transform="translate(-39.41 -156.25)"/><path class="cls-2" d="M203.34,357.45c0,.33-.06.67-.1,1l-1.56.19c-.79,1.6-.92,7.3-1.76,9.78a89.44,89.44,0,0,0-3.78,14.31,25.1,25.1,0,0,0-.42-3.6c-.34-1.79-7.08,7.18-7.62,7.88-3.61,4.54-7.36,9.35-12,12.9a72.71,72.71,0,0,0,7-7.61c5-6.4,10.89-14.41,13.6-22.7A37.71,37.71,0,0,0,200.6,358a7.41,7.41,0,0,0,.1-1.24A7.37,7.37,0,0,0,203.34,357.45Z" transform="translate(-39.41 -156.25)"/><path class="cls-1" d="M211.32,425.36c8.59,2.22,20.3-1.45,27.41-6.89-4.79,6.07-10.75,10.78-19.92,12-6.12.84-11.57-.49-15.64-5.69-8.41-10.65-9-25.81-7.52-38.76.13-1.14.29-2.25.49-3.34.36,7.32-1.81,15.25-.11,22.8C198,414.26,202,422.94,211.32,425.36Z" transform="translate(-39.41 -156.25)"/><path class="cls-2" d="M185.69,386.08a102,102,0,0,0,11-16.5c-2.71,8.29-8.58,16.3-13.6,22.7a72.71,72.71,0,0,1-7,7.61.22.22,0,0,1-.1.09l-1,.73c-8.67,6.11-24.67,11.45-34.35,4.55-8.29-5.89-10.25-19.13-10-28.49,0-.39,0-1,.08-1.9a.29.29,0,0,0,0-.16c.93-6.7,4.44-12.16,5.33-18.3a1.86,1.86,0,0,0,.05-.3.53.53,0,0,0-.27,0,2.75,2.75,0,0,0-2.69,1.35c1.18-4.54,2.88-7.95,5.29-7.56-.73.06-.06,1.47.22.35-.95,6.42-4.74,12.11-5.44,19.25-.93,9.63-.91,19.44,4.15,28C150.15,419.28,175.43,399.19,185.69,386.08Z" transform="translate(-39.41 -156.25)"/><path class="cls-2" d="M155.68,313.36a5,5,0,0,1,2,2.52A12.57,12.57,0,0,1,155.68,313.36Z" transform="translate(-39.41 -156.25)"/><path class="cls-2" d="M155.68,313.36a12.57,12.57,0,0,0,2,2.52C155.82,314.05,155.44,313.34,155.68,313.36Z" transform="translate(-39.41 -156.25)"/><path class="cls-2" d="M149.09,328a8.65,8.65,0,0,1-2.73,1.51,17.51,17.51,0,0,0-2.17-1.85A179.74,179.74,0,0,0,117,300.14c1-1.43,2-2.89,2.93-4.32C130.05,306.11,139.36,317.3,149.09,328Z" transform="translate(-39.41 -156.25)"/><path class="cls-2" d="M149.67,342.35a8.14,8.14,0,0,1,1.6,6.83c-13.62-11.05-28.85-22.16-45-31.32.43-.84.82-1.66,1.26-2.49s1-1.78,1.55-2.66c3.58,1.9,7.14,3.85,10.66,5.88C131,325.11,141.88,331.72,149.67,342.35Z" transform="translate(-39.41 -156.25)"/><path class="cls-2" d="M175,400.71l1-.73c-12.12,11.42-30.82,21.45-41.19,3.72-5.06-8.6-5.08-18.41-4.15-28,0-.26.05-.53.1-.79,0,.87-.07,1.51-.08,1.9-.28,9.36,1.68,22.6,10,28.49C150.33,412.16,166.33,406.82,175,400.71Z" transform="translate(-39.41 -156.25)"/><path class="cls-2" d="M138.75,349.91a1.86,1.86,0,0,1-.05.3c-.28,1.12-.95-.29-.22-.35A.68.68,0,0,1,138.75,349.91Z" transform="translate(-39.41 -156.25)"/><path class="cls-2" d="M136.15,356.11a1.86,1.86,0,0,1-.05.3c-.28,1.12-.95-.29-.22-.34A.53.53,0,0,1,136.15,356.11Z" transform="translate(-39.41 -156.25)"/><path class="cls-2" d="M135.88,356.07c-.73.05-.06,1.46.22.34-.89,6.14-4.4,11.6-5.33,18.3a103.13,103.13,0,0,1,2.42-17.29A2.75,2.75,0,0,1,135.88,356.07Z" transform="translate(-39.41 -156.25)"/></svg>